M48
; DRILL file {KiCad 9.0.8-9.0.8~ubuntu24.04.1} date 2026-03-23T22:49:09+0530
; FORMAT={-:-/ absolute / metric / decimal}
; #@! TF.CreationDate,2026-03-23T22:49:09+05:30
; #@! TF.GenerationSoftware,Kicad,Pcbnew,9.0.8-9.0.8~ubuntu24.04.1
; #@! TF.FileFunction,Plated,1,2,PTH
FMAT,2
METRIC
; #@! TA.AperFunction,Plated,PTH,ViaDrill
T1C0.300
; #@! TA.AperFunction,Plated,PTH,ComponentDrill
T2C0.700
; #@! TA.AperFunction,Plated,PTH,ComponentDrill
T3C1.000
; #@! TA.AperFunction,Plated,PTH,ComponentDrill
T4C1.100
%
G90
G05
T1
X57.282Y-105.8
X63.8Y-82.866
X66.141Y-85.733
X66.305Y-97.036
T2
X90.18Y-68.05
X90.19Y-78.5
X90.19Y-89.0
X90.19Y-101.5
X97.8Y-68.05
X97.81Y-78.5
X97.81Y-89.0
X97.81Y-101.5
T3
X57.3Y-59.68
X57.3Y-62.22
X57.3Y-64.76
X57.3Y-67.3
X57.3Y-69.84
X57.3Y-72.38
X57.3Y-74.92
X57.3Y-77.46
X57.3Y-80.0
X57.3Y-82.54
X57.3Y-85.08
X57.3Y-87.62
X57.3Y-90.16
X57.3Y-92.7
X57.3Y-95.24
X61.0Y-106.5
X63.54Y-106.5
X63.8Y-68.5
X66.0Y-53.0
X66.08Y-106.5
X66.34Y-68.5
X68.54Y-53.0
X68.62Y-106.5
X68.88Y-68.5
X71.08Y-53.0
X71.16Y-106.5
X71.42Y-68.5
X73.62Y-53.0
X73.7Y-106.5
X73.96Y-68.5
X76.24Y-106.5
X76.5Y-68.5
X78.78Y-106.5
X82.7Y-59.68
X82.7Y-62.22
X82.7Y-64.76
X82.7Y-67.3
X82.7Y-69.84
X82.7Y-72.38
X82.7Y-74.92
X82.7Y-77.46
X82.7Y-80.0
X82.7Y-82.54
X82.7Y-85.08
X82.7Y-87.62
X82.7Y-90.16
X82.7Y-92.7
X82.7Y-95.24
T4
X90.75Y-60.65
X90.75Y-65.15
X90.75Y-71.15
X90.75Y-75.65
X90.75Y-81.65
X90.75Y-86.15
X91.75Y-92.25
X91.75Y-98.75
X96.25Y-92.25
X96.25Y-98.75
X97.25Y-60.65
X97.25Y-65.15
X97.25Y-71.15
X97.25Y-75.65
X97.25Y-81.65
X97.25Y-86.15
M30
