%TF.GenerationSoftware,KiCad,Pcbnew,9.0.8-9.0.8~ubuntu24.04.1*%
%TF.CreationDate,2026-03-23T22:49:11+05:30*%
%TF.ProjectId,ss_pcb_rev1_0,73735f70-6362-45f7-9265-76315f302e6b,rev?*%
%TF.SameCoordinates,Original*%
%TF.FileFunction,Copper,L2,Bot*%
%TF.FilePolarity,Positive*%
%FSLAX46Y46*%
G04 Gerber Fmt 4.6, Leading zero omitted, Abs format (unit mm)*
G04 Created by KiCad (PCBNEW 9.0.8-9.0.8~ubuntu24.04.1) date 2026-03-23 22:49:11*
%MOMM*%
%LPD*%
G01*
G04 APERTURE LIST*
%TA.AperFunction,ComponentPad*%
%ADD10C,2.000000*%
%TD*%
%TA.AperFunction,ComponentPad*%
%ADD11C,1.400000*%
%TD*%
%TA.AperFunction,ComponentPad*%
%ADD12R,1.700000X1.700000*%
%TD*%
%TA.AperFunction,ComponentPad*%
%ADD13C,1.700000*%
%TD*%
%TA.AperFunction,ComponentPad*%
%ADD14O,1.700000X1.700000*%
%TD*%
%TA.AperFunction,ViaPad*%
%ADD15C,0.600000*%
%TD*%
%TA.AperFunction,Conductor*%
%ADD16C,0.200000*%
%TD*%
G04 APERTURE END LIST*
D10*
%TO.P,SW4,1,1*%
%TO.N,LCD_GND*%
X96250000Y-92250000D03*
X96250000Y-98750000D03*
%TO.P,SW4,2,2*%
%TO.N,SW_BACK*%
X91750000Y-92250000D03*
X91750000Y-98750000D03*
%TD*%
D11*
%TO.P,R1,1*%
%TO.N,LCD_VCC*%
X97800000Y-68050000D03*
%TO.P,R1,2*%
%TO.N,SW_UP*%
X90180000Y-68050000D03*
%TD*%
%TO.P,R4,1*%
%TO.N,LCD_VCC*%
X97810000Y-101500000D03*
%TO.P,R4,2*%
%TO.N,SW_BACK*%
X90190000Y-101500000D03*
%TD*%
D10*
%TO.P,SW2,1,1*%
%TO.N,LCD_GND*%
X90750000Y-71150000D03*
X97250000Y-71150000D03*
%TO.P,SW2,2,2*%
%TO.N,SW_DOWN*%
X90750000Y-75650000D03*
X97250000Y-75650000D03*
%TD*%
D11*
%TO.P,R2,1*%
%TO.N,LCD_VCC*%
X97810000Y-78500000D03*
%TO.P,R2,2*%
%TO.N,SW_DOWN*%
X90190000Y-78500000D03*
%TD*%
D10*
%TO.P,SW1,1,1*%
%TO.N,LCD_GND*%
X90750000Y-60650000D03*
X97250000Y-60650000D03*
%TO.P,SW1,2,2*%
%TO.N,SW_UP*%
X90750000Y-65150000D03*
X97250000Y-65150000D03*
%TD*%
D12*
%TO.P,U2,1,LCD_LED_BL*%
%TO.N,LCD_BL*%
X61000000Y-106500000D03*
D13*
%TO.P,U2,2,LCD_SCK_CLK*%
%TO.N,LCD_SPI_CLK*%
X63540000Y-106500000D03*
%TO.P,U2,3,LCD_SDA_MOSI*%
%TO.N,LCD_SPI_MOSI*%
X66080000Y-106500000D03*
%TO.P,U2,4,LCD_A0_DC*%
%TO.N,LCD_DC*%
X68620000Y-106500000D03*
%TO.P,U2,5,LCD_RESET*%
%TO.N,LCD_RESET*%
X71160000Y-106500000D03*
%TO.P,U2,6,LCD_CS*%
%TO.N,LCD_SPI_CS*%
X73700000Y-106500000D03*
%TO.P,U2,7,LCD_GND*%
%TO.N,LCD_GND*%
X76240000Y-106500000D03*
%TO.P,U2,8,LCD_VCC*%
%TO.N,LCD_VCC*%
X78780000Y-106500000D03*
%TO.P,U2,9,SD_CS*%
%TO.N,unconnected-(U2-SD_CS-Pad9)*%
X73620000Y-53000000D03*
%TO.P,U2,10,SD_MOSI*%
%TO.N,unconnected-(U2-SD_MOSI-Pad10)*%
X71080000Y-53000000D03*
%TO.P,U2,11,SD_MISO*%
%TO.N,unconnected-(U2-SD_MISO-Pad11)*%
X68540000Y-53000000D03*
D12*
%TO.P,U2,12,SD_SCK_CLK*%
%TO.N,unconnected-(U2-SD_SCK_CLK-Pad12)*%
X66000000Y-53000000D03*
%TD*%
D11*
%TO.P,R3,1*%
%TO.N,LCD_VCC*%
X97810000Y-89000000D03*
%TO.P,R3,2*%
%TO.N,SW_OK*%
X90190000Y-89000000D03*
%TD*%
D10*
%TO.P,SW3,1,1*%
%TO.N,LCD_GND*%
X90750000Y-81650000D03*
X97250000Y-81650000D03*
%TO.P,SW3,2,2*%
%TO.N,SW_OK*%
X90750000Y-86150000D03*
X97250000Y-86150000D03*
%TD*%
D12*
%TO.P,J3,1,VDD*%
%TO.N,LCD_VCC*%
X76500000Y-68500000D03*
D14*
%TO.P,J3,2,CS*%
%TO.N,SD_SPI_CS*%
X73960000Y-68500000D03*
%TO.P,J3,3,MOSI*%
%TO.N,SD_SPI_MOSI*%
X71420000Y-68500000D03*
%TO.P,J3,4,SCK*%
%TO.N,SD_SPI_CLK*%
X68880000Y-68500000D03*
%TO.P,J3,5,MISO*%
%TO.N,SD_SPI_MISO*%
X66340000Y-68500000D03*
%TO.P,J3,6,GND*%
%TO.N,LCD_GND*%
X63800000Y-68500000D03*
%TD*%
%TO.P,U1,1,VIN/5V/USB*%
%TO.N,LCD_BL*%
X82700000Y-95240000D03*
%TO.P,U1,2,GND*%
%TO.N,LCD_GND*%
X82700000Y-92700000D03*
X57300000Y-92700000D03*
%TO.P,U1,3,3.3V*%
%TO.N,LCD_VCC*%
X57300000Y-95240000D03*
%TO.P,U1,5,GPI36/ADC1_0/SenseVP*%
%TO.N,SW_UP*%
X82700000Y-62220000D03*
%TO.P,U1,8,GPI39/ADC1_3/SenseVN*%
%TO.N,SW_DOWN*%
X82700000Y-64760000D03*
D12*
%TO.P,U1,9,EN*%
%TO.N,unconnected-(U1-EN-Pad9)*%
X82700000Y-59680000D03*
D14*
%TO.P,U1,10,GPI34/ADC1_6*%
%TO.N,SW_OK*%
X82700000Y-67300000D03*
%TO.P,U1,11,GPI35/ADC1_7*%
%TO.N,SW_BACK*%
X82700000Y-69840000D03*
%TO.P,U1,12,GPIO32/ADC1_4/XTAL32*%
%TO.N,unconnected-(U1-GPIO32{slash}ADC1_4{slash}XTAL32-Pad12)*%
X82700000Y-72380000D03*
%TO.P,U1,13,GPIO33/ADC1_5/XTAL32*%
%TO.N,unconnected-(U1-GPIO33{slash}ADC1_5{slash}XTAL32-Pad13)*%
X82700000Y-74920000D03*
%TO.P,U1,14,GPIO25/ADC2_8/DAC1*%
%TO.N,unconnected-(U1-GPIO25{slash}ADC2_8{slash}DAC1-Pad14)*%
X82700000Y-77460000D03*
%TO.P,U1,15,GPIO26/ADC2_9/DAC2*%
%TO.N,LCD_DC*%
X82700000Y-80000000D03*
%TO.P,U1,16,GPIO27/ADC2_7*%
%TO.N,LCD_RESET*%
X82700000Y-82540000D03*
%TO.P,U1,17,GPIO14/HSPI/CLK/ADC2_6*%
%TO.N,LCD_SPI_CLK*%
X82700000Y-85080000D03*
%TO.P,U1,18,GPIO12/HSPI/MISO/ADC2_4*%
%TO.N,unconnected-(U1-GPIO12{slash}HSPI{slash}MISO{slash}ADC2_4-Pad18)*%
X82700000Y-87620000D03*
%TO.P,U1,20,GPIO13/HSPI/MOSI/ADC2_4*%
%TO.N,LCD_SPI_MOSI*%
X82700000Y-90160000D03*
%TO.P,U1,21,GPIO15/HSPI/CS/ADC2_3*%
%TO.N,LCD_SPI_CS*%
X57300000Y-90160000D03*
%TO.P,U1,22,GPIO2/HSPI/WP/ADC2_2*%
%TO.N,unconnected-(U1-GPIO2{slash}HSPI{slash}WP{slash}ADC2_2-Pad22)*%
X57300000Y-87620000D03*
%TO.P,U1,24,GPIO4/HSPI/HD/ADC2_0*%
%TO.N,unconnected-(U1-GPIO4{slash}HSPI{slash}HD{slash}ADC2_0-Pad24)*%
X57300000Y-85080000D03*
%TO.P,U1,25,GPIO16/U2_RXD*%
%TO.N,unconnected-(U1-GPIO16{slash}U2_RXD-Pad25)*%
X57300000Y-82540000D03*
%TO.P,U1,27,GPIO17/U2_TXD*%
%TO.N,unconnected-(U1-GPIO17{slash}U2_TXD-Pad27)*%
X57300000Y-80000000D03*
%TO.P,U1,34,GPIO5/VSPI/CS*%
%TO.N,SD_SPI_CS*%
X57300000Y-77460000D03*
%TO.P,U1,35,GPIO18/VSPI/CLK*%
%TO.N,SD_SPI_CLK*%
X57300000Y-74920000D03*
%TO.P,U1,36,GPIO23/VSPI/MOSI*%
%TO.N,SD_SPI_MOSI*%
X57300000Y-59680000D03*
%TO.P,U1,38,GPIO19/VSPI/MISO*%
%TO.N,SD_SPI_MISO*%
X57300000Y-72380000D03*
%TO.P,U1,39,GPIO22/I2C/SCL*%
%TO.N,unconnected-(U1-GPIO22{slash}I2C{slash}SCL-Pad39)*%
X57300000Y-62220000D03*
%TO.P,U1,40,GPIO3/CLK2/U0_RXD*%
%TO.N,unconnected-(U1-GPIO3{slash}CLK2{slash}U0_RXD-Pad40)*%
X57300000Y-67300000D03*
%TO.P,U1,41,GPIO1/CLK3/U0_TX*%
%TO.N,unconnected-(U1-GPIO1{slash}CLK3{slash}U0_TX-Pad41)*%
X57300000Y-64760000D03*
%TO.P,U1,42,GPIO21/I2C/SDA*%
%TO.N,unconnected-(U1-GPIO21{slash}I2C{slash}SDA-Pad42)*%
X57300000Y-69840000D03*
%TD*%
D15*
%TO.N,LCD_SPI_CS*%
X57282500Y-105799900D03*
%TO.N,LCD_SPI_MOSI*%
X66305200Y-97036100D03*
%TO.N,LCD_SPI_CLK*%
X66141500Y-85733000D03*
%TO.N,LCD_GND*%
X63800000Y-82866300D03*
%TD*%
D16*
%TO.N,LCD_SPI_CS*%
X59134300Y-107651700D02*
X57282500Y-105799900D01*
X72548300Y-107651700D02*
X59134300Y-107651700D01*
X73700000Y-106500000D02*
X72548300Y-107651700D01*
X57282500Y-105799900D02*
X56145700Y-104663100D01*
X56145700Y-104663100D02*
X57282500Y-105799900D01*
%TO.N,LCD_BL*%
X73123800Y-95240000D02*
X82700000Y-95240000D01*
X62151700Y-106212100D02*
X73123800Y-95240000D01*
X62151700Y-106500000D02*
X62151700Y-106212100D01*
X61000000Y-106500000D02*
X62151700Y-106500000D01*
%TO.N,LCD_SPI_MOSI*%
X73181300Y-90160000D02*
X82700000Y-90160000D01*
X66305200Y-97036100D02*
X73181300Y-90160000D01*
%TO.N,LCD_SPI_CLK*%
X66794500Y-85080000D02*
X66141500Y-85733000D01*
X82700000Y-85080000D02*
X66794500Y-85080000D01*
%TO.N,SD_SPI_CLK*%
X67728300Y-68768500D02*
X67728300Y-68500000D01*
X61576800Y-74920000D02*
X67728300Y-68768500D01*
X57300000Y-74920000D02*
X61576800Y-74920000D01*
X68880000Y-68500000D02*
X67728300Y-68500000D01*
%TO.N,SD_SPI_CS*%
X64136200Y-77460000D02*
X57300000Y-77460000D01*
X72808300Y-68787900D02*
X64136200Y-77460000D01*
X72808300Y-68500000D02*
X72808300Y-68787900D01*
X73960000Y-68500000D02*
X72808300Y-68500000D01*
%TO.N,SD_SPI_MOSI*%
X70268300Y-68231500D02*
X70268300Y-68500000D01*
X61716800Y-59680000D02*
X70268300Y-68231500D01*
X57300000Y-59680000D02*
X61716800Y-59680000D01*
X71420000Y-68500000D02*
X70268300Y-68500000D01*
%TO.N,LCD_VCC*%
X92810000Y-106500000D02*
X97810000Y-101500000D01*
X78780000Y-106500000D02*
X92810000Y-106500000D01*
X96760100Y-69089900D02*
X97800000Y-68050000D01*
X89449400Y-69089900D02*
X96760100Y-69089900D01*
X88859500Y-68500000D02*
X89449400Y-69089900D01*
X76500000Y-68500000D02*
X88859500Y-68500000D01*
X96801100Y-87991100D02*
X97810000Y-89000000D01*
X89668400Y-87991100D02*
X96801100Y-87991100D01*
X88769500Y-88890000D02*
X89668400Y-87991100D01*
X64801700Y-88890000D02*
X88769500Y-88890000D01*
X58451700Y-95240000D02*
X64801700Y-88890000D01*
X57300000Y-95240000D02*
X58451700Y-95240000D01*
%TO.N,LCD_GND*%
X90750000Y-71150000D02*
X97250000Y-71150000D01*
X90750000Y-60650000D02*
X97250000Y-60650000D01*
X90750000Y-81650000D02*
X97250000Y-81650000D01*
X94892800Y-93607200D02*
X96250000Y-92250000D01*
X84758900Y-93607200D02*
X94892800Y-93607200D01*
X83851700Y-92700000D02*
X84758900Y-93607200D01*
X82700000Y-92700000D02*
X83851700Y-92700000D01*
X90465000Y-81365000D02*
X90750000Y-81650000D01*
X65301300Y-81365000D02*
X90465000Y-81365000D01*
X63800000Y-82866300D02*
X65301300Y-81365000D01*
%TO.N,SD_SPI_MISO*%
X66340000Y-68500000D02*
X65188300Y-68500000D01*
X61596200Y-72380000D02*
X57300000Y-72380000D01*
X65188300Y-68787900D02*
X61596200Y-72380000D01*
X65188300Y-68500000D02*
X65188300Y-68787900D01*
%TO.N,SW_OK*%
X90750000Y-86150000D02*
X97250000Y-86150000D01*
%TO.N,SW_DOWN*%
X97250000Y-75650000D02*
X90750000Y-75650000D01*
%TO.N,SW_UP*%
X90750000Y-65150000D02*
X92222200Y-65150000D01*
X92222200Y-65150000D02*
X97250000Y-65150000D01*
X88060000Y-62220000D02*
X82700000Y-62220000D01*
X90990000Y-65150000D02*
X88060000Y-62220000D01*
X92222200Y-65150000D02*
X90990000Y-65150000D01*
%TD*%
M02*
