%TF.GenerationSoftware,KiCad,Pcbnew,9.0.8-9.0.8~ubuntu24.04.1*%
%TF.CreationDate,2026-03-23T22:49:12+05:30*%
%TF.ProjectId,ss_pcb_rev1_0,73735f70-6362-45f7-9265-76315f302e6b,rev?*%
%TF.SameCoordinates,Original*%
%TF.FileFunction,Legend,Bot*%
%TF.FilePolarity,Positive*%
%FSLAX46Y46*%
G04 Gerber Fmt 4.6, Leading zero omitted, Abs format (unit mm)*
G04 Created by KiCad (PCBNEW 9.0.8-9.0.8~ubuntu24.04.1) date 2026-03-23 22:49:12*
%MOMM*%
%LPD*%
G01*
G04 APERTURE LIST*
%ADD10C,0.150000*%
%ADD11C,0.100000*%
%ADD12C,0.120000*%
G04 APERTURE END LIST*
D10*
X78724819Y-68166666D02*
X79439104Y-68166666D01*
X79439104Y-68166666D02*
X79581961Y-68119047D01*
X79581961Y-68119047D02*
X79677200Y-68023809D01*
X79677200Y-68023809D02*
X79724819Y-67880952D01*
X79724819Y-67880952D02*
X79724819Y-67785714D01*
X78724819Y-68547619D02*
X78724819Y-69166666D01*
X78724819Y-69166666D02*
X79105771Y-68833333D01*
X79105771Y-68833333D02*
X79105771Y-68976190D01*
X79105771Y-68976190D02*
X79153390Y-69071428D01*
X79153390Y-69071428D02*
X79201009Y-69119047D01*
X79201009Y-69119047D02*
X79296247Y-69166666D01*
X79296247Y-69166666D02*
X79534342Y-69166666D01*
X79534342Y-69166666D02*
X79629580Y-69119047D01*
X79629580Y-69119047D02*
X79677200Y-69071428D01*
X79677200Y-69071428D02*
X79724819Y-68976190D01*
X79724819Y-68976190D02*
X79724819Y-68690476D01*
X79724819Y-68690476D02*
X79677200Y-68595238D01*
X79677200Y-68595238D02*
X79629580Y-68547619D01*
D11*
X55877580Y-60196115D02*
X56877580Y-60196115D01*
X56877580Y-60196115D02*
X56163295Y-59862782D01*
X56163295Y-59862782D02*
X56877580Y-59529449D01*
X56877580Y-59529449D02*
X55877580Y-59529449D01*
X55877580Y-59053258D02*
X56544247Y-59053258D01*
X56877580Y-59053258D02*
X56829961Y-59100877D01*
X56829961Y-59100877D02*
X56782342Y-59053258D01*
X56782342Y-59053258D02*
X56829961Y-59005639D01*
X56829961Y-59005639D02*
X56877580Y-59053258D01*
X56877580Y-59053258D02*
X56782342Y-59053258D01*
X55925200Y-58148497D02*
X55877580Y-58243735D01*
X55877580Y-58243735D02*
X55877580Y-58434211D01*
X55877580Y-58434211D02*
X55925200Y-58529449D01*
X55925200Y-58529449D02*
X55972819Y-58577068D01*
X55972819Y-58577068D02*
X56068057Y-58624687D01*
X56068057Y-58624687D02*
X56353771Y-58624687D01*
X56353771Y-58624687D02*
X56449009Y-58577068D01*
X56449009Y-58577068D02*
X56496628Y-58529449D01*
X56496628Y-58529449D02*
X56544247Y-58434211D01*
X56544247Y-58434211D02*
X56544247Y-58243735D01*
X56544247Y-58243735D02*
X56496628Y-58148497D01*
X55877580Y-57719925D02*
X56544247Y-57719925D01*
X56353771Y-57719925D02*
X56449009Y-57672306D01*
X56449009Y-57672306D02*
X56496628Y-57624687D01*
X56496628Y-57624687D02*
X56544247Y-57529449D01*
X56544247Y-57529449D02*
X56544247Y-57434211D01*
X55877580Y-56958020D02*
X55925200Y-57053258D01*
X55925200Y-57053258D02*
X55972819Y-57100877D01*
X55972819Y-57100877D02*
X56068057Y-57148496D01*
X56068057Y-57148496D02*
X56353771Y-57148496D01*
X56353771Y-57148496D02*
X56449009Y-57100877D01*
X56449009Y-57100877D02*
X56496628Y-57053258D01*
X56496628Y-57053258D02*
X56544247Y-56958020D01*
X56544247Y-56958020D02*
X56544247Y-56815163D01*
X56544247Y-56815163D02*
X56496628Y-56719925D01*
X56496628Y-56719925D02*
X56449009Y-56672306D01*
X56449009Y-56672306D02*
X56353771Y-56624687D01*
X56353771Y-56624687D02*
X56068057Y-56624687D01*
X56068057Y-56624687D02*
X55972819Y-56672306D01*
X55972819Y-56672306D02*
X55925200Y-56719925D01*
X55925200Y-56719925D02*
X55877580Y-56815163D01*
X55877580Y-56815163D02*
X55877580Y-56958020D01*
X55925200Y-56243734D02*
X55877580Y-56100877D01*
X55877580Y-56100877D02*
X55877580Y-55862782D01*
X55877580Y-55862782D02*
X55925200Y-55767544D01*
X55925200Y-55767544D02*
X55972819Y-55719925D01*
X55972819Y-55719925D02*
X56068057Y-55672306D01*
X56068057Y-55672306D02*
X56163295Y-55672306D01*
X56163295Y-55672306D02*
X56258533Y-55719925D01*
X56258533Y-55719925D02*
X56306152Y-55767544D01*
X56306152Y-55767544D02*
X56353771Y-55862782D01*
X56353771Y-55862782D02*
X56401390Y-56053258D01*
X56401390Y-56053258D02*
X56449009Y-56148496D01*
X56449009Y-56148496D02*
X56496628Y-56196115D01*
X56496628Y-56196115D02*
X56591866Y-56243734D01*
X56591866Y-56243734D02*
X56687104Y-56243734D01*
X56687104Y-56243734D02*
X56782342Y-56196115D01*
X56782342Y-56196115D02*
X56829961Y-56148496D01*
X56829961Y-56148496D02*
X56877580Y-56053258D01*
X56877580Y-56053258D02*
X56877580Y-55815163D01*
X56877580Y-55815163D02*
X56829961Y-55672306D01*
X55877580Y-55243734D02*
X56877580Y-55243734D01*
X56877580Y-55243734D02*
X56877580Y-55005639D01*
X56877580Y-55005639D02*
X56829961Y-54862782D01*
X56829961Y-54862782D02*
X56734723Y-54767544D01*
X56734723Y-54767544D02*
X56639485Y-54719925D01*
X56639485Y-54719925D02*
X56449009Y-54672306D01*
X56449009Y-54672306D02*
X56306152Y-54672306D01*
X56306152Y-54672306D02*
X56115676Y-54719925D01*
X56115676Y-54719925D02*
X56020438Y-54767544D01*
X56020438Y-54767544D02*
X55925200Y-54862782D01*
X55925200Y-54862782D02*
X55877580Y-55005639D01*
X55877580Y-55005639D02*
X55877580Y-55243734D01*
X55972819Y-52910401D02*
X55925200Y-52958020D01*
X55925200Y-52958020D02*
X55877580Y-53100877D01*
X55877580Y-53100877D02*
X55877580Y-53196115D01*
X55877580Y-53196115D02*
X55925200Y-53338972D01*
X55925200Y-53338972D02*
X56020438Y-53434210D01*
X56020438Y-53434210D02*
X56115676Y-53481829D01*
X56115676Y-53481829D02*
X56306152Y-53529448D01*
X56306152Y-53529448D02*
X56449009Y-53529448D01*
X56449009Y-53529448D02*
X56639485Y-53481829D01*
X56639485Y-53481829D02*
X56734723Y-53434210D01*
X56734723Y-53434210D02*
X56829961Y-53338972D01*
X56829961Y-53338972D02*
X56877580Y-53196115D01*
X56877580Y-53196115D02*
X56877580Y-53100877D01*
X56877580Y-53100877D02*
X56829961Y-52958020D01*
X56829961Y-52958020D02*
X56782342Y-52910401D01*
X55877580Y-52053258D02*
X56401390Y-52053258D01*
X56401390Y-52053258D02*
X56496628Y-52100877D01*
X56496628Y-52100877D02*
X56544247Y-52196115D01*
X56544247Y-52196115D02*
X56544247Y-52386591D01*
X56544247Y-52386591D02*
X56496628Y-52481829D01*
X55925200Y-52053258D02*
X55877580Y-52148496D01*
X55877580Y-52148496D02*
X55877580Y-52386591D01*
X55877580Y-52386591D02*
X55925200Y-52481829D01*
X55925200Y-52481829D02*
X56020438Y-52529448D01*
X56020438Y-52529448D02*
X56115676Y-52529448D01*
X56115676Y-52529448D02*
X56210914Y-52481829D01*
X56210914Y-52481829D02*
X56258533Y-52386591D01*
X56258533Y-52386591D02*
X56258533Y-52148496D01*
X56258533Y-52148496D02*
X56306152Y-52053258D01*
X55877580Y-51577067D02*
X56544247Y-51577067D01*
X56353771Y-51577067D02*
X56449009Y-51529448D01*
X56449009Y-51529448D02*
X56496628Y-51481829D01*
X56496628Y-51481829D02*
X56544247Y-51386591D01*
X56544247Y-51386591D02*
X56544247Y-51291353D01*
X55877580Y-50529448D02*
X56877580Y-50529448D01*
X55925200Y-50529448D02*
X55877580Y-50624686D01*
X55877580Y-50624686D02*
X55877580Y-50815162D01*
X55877580Y-50815162D02*
X55925200Y-50910400D01*
X55925200Y-50910400D02*
X55972819Y-50958019D01*
X55972819Y-50958019D02*
X56068057Y-51005638D01*
X56068057Y-51005638D02*
X56353771Y-51005638D01*
X56353771Y-51005638D02*
X56449009Y-50958019D01*
X56449009Y-50958019D02*
X56496628Y-50910400D01*
X56496628Y-50910400D02*
X56544247Y-50815162D01*
X56544247Y-50815162D02*
X56544247Y-50624686D01*
X56544247Y-50624686D02*
X56496628Y-50529448D01*
X55877580Y-48719924D02*
X56353771Y-49053257D01*
X55877580Y-49291352D02*
X56877580Y-49291352D01*
X56877580Y-49291352D02*
X56877580Y-48910400D01*
X56877580Y-48910400D02*
X56829961Y-48815162D01*
X56829961Y-48815162D02*
X56782342Y-48767543D01*
X56782342Y-48767543D02*
X56687104Y-48719924D01*
X56687104Y-48719924D02*
X56544247Y-48719924D01*
X56544247Y-48719924D02*
X56449009Y-48767543D01*
X56449009Y-48767543D02*
X56401390Y-48815162D01*
X56401390Y-48815162D02*
X56353771Y-48910400D01*
X56353771Y-48910400D02*
X56353771Y-49291352D01*
X55925200Y-47910400D02*
X55877580Y-48005638D01*
X55877580Y-48005638D02*
X55877580Y-48196114D01*
X55877580Y-48196114D02*
X55925200Y-48291352D01*
X55925200Y-48291352D02*
X56020438Y-48338971D01*
X56020438Y-48338971D02*
X56401390Y-48338971D01*
X56401390Y-48338971D02*
X56496628Y-48291352D01*
X56496628Y-48291352D02*
X56544247Y-48196114D01*
X56544247Y-48196114D02*
X56544247Y-48005638D01*
X56544247Y-48005638D02*
X56496628Y-47910400D01*
X56496628Y-47910400D02*
X56401390Y-47862781D01*
X56401390Y-47862781D02*
X56306152Y-47862781D01*
X56306152Y-47862781D02*
X56210914Y-48338971D01*
X55877580Y-47005638D02*
X56401390Y-47005638D01*
X56401390Y-47005638D02*
X56496628Y-47053257D01*
X56496628Y-47053257D02*
X56544247Y-47148495D01*
X56544247Y-47148495D02*
X56544247Y-47338971D01*
X56544247Y-47338971D02*
X56496628Y-47434209D01*
X55925200Y-47005638D02*
X55877580Y-47100876D01*
X55877580Y-47100876D02*
X55877580Y-47338971D01*
X55877580Y-47338971D02*
X55925200Y-47434209D01*
X55925200Y-47434209D02*
X56020438Y-47481828D01*
X56020438Y-47481828D02*
X56115676Y-47481828D01*
X56115676Y-47481828D02*
X56210914Y-47434209D01*
X56210914Y-47434209D02*
X56258533Y-47338971D01*
X56258533Y-47338971D02*
X56258533Y-47100876D01*
X56258533Y-47100876D02*
X56306152Y-47005638D01*
X55877580Y-46100876D02*
X56877580Y-46100876D01*
X55925200Y-46100876D02*
X55877580Y-46196114D01*
X55877580Y-46196114D02*
X55877580Y-46386590D01*
X55877580Y-46386590D02*
X55925200Y-46481828D01*
X55925200Y-46481828D02*
X55972819Y-46529447D01*
X55972819Y-46529447D02*
X56068057Y-46577066D01*
X56068057Y-46577066D02*
X56353771Y-46577066D01*
X56353771Y-46577066D02*
X56449009Y-46529447D01*
X56449009Y-46529447D02*
X56496628Y-46481828D01*
X56496628Y-46481828D02*
X56544247Y-46386590D01*
X56544247Y-46386590D02*
X56544247Y-46196114D01*
X56544247Y-46196114D02*
X56496628Y-46100876D01*
X55925200Y-45243733D02*
X55877580Y-45338971D01*
X55877580Y-45338971D02*
X55877580Y-45529447D01*
X55877580Y-45529447D02*
X55925200Y-45624685D01*
X55925200Y-45624685D02*
X56020438Y-45672304D01*
X56020438Y-45672304D02*
X56401390Y-45672304D01*
X56401390Y-45672304D02*
X56496628Y-45624685D01*
X56496628Y-45624685D02*
X56544247Y-45529447D01*
X56544247Y-45529447D02*
X56544247Y-45338971D01*
X56544247Y-45338971D02*
X56496628Y-45243733D01*
X56496628Y-45243733D02*
X56401390Y-45196114D01*
X56401390Y-45196114D02*
X56306152Y-45196114D01*
X56306152Y-45196114D02*
X56210914Y-45672304D01*
X55877580Y-44767542D02*
X56544247Y-44767542D01*
X56353771Y-44767542D02*
X56449009Y-44719923D01*
X56449009Y-44719923D02*
X56496628Y-44672304D01*
X56496628Y-44672304D02*
X56544247Y-44577066D01*
X56544247Y-44577066D02*
X56544247Y-44481828D01*
D10*
X70761904Y-48454819D02*
X70761904Y-49264342D01*
X70761904Y-49264342D02*
X70714285Y-49359580D01*
X70714285Y-49359580D02*
X70666666Y-49407200D01*
X70666666Y-49407200D02*
X70571428Y-49454819D01*
X70571428Y-49454819D02*
X70380952Y-49454819D01*
X70380952Y-49454819D02*
X70285714Y-49407200D01*
X70285714Y-49407200D02*
X70238095Y-49359580D01*
X70238095Y-49359580D02*
X70190476Y-49264342D01*
X70190476Y-49264342D02*
X70190476Y-48454819D01*
X69190476Y-49454819D02*
X69761904Y-49454819D01*
X69476190Y-49454819D02*
X69476190Y-48454819D01*
X69476190Y-48454819D02*
X69571428Y-48597676D01*
X69571428Y-48597676D02*
X69666666Y-48692914D01*
X69666666Y-48692914D02*
X69761904Y-48740533D01*
D12*
%TO.C,J3*%
X62470000Y-69830000D02*
X62470000Y-67170000D01*
X75230000Y-67170000D02*
X62470000Y-67170000D01*
X75230000Y-69830000D02*
X62470000Y-69830000D01*
X75230000Y-69830000D02*
X75230000Y-67170000D01*
X77830000Y-67170000D02*
X76500000Y-67170000D01*
X77830000Y-68500000D02*
X77830000Y-67170000D01*
D11*
X82500000Y-70750000D02*
X57500000Y-70750000D01*
X57500000Y-40750000D01*
X82500000Y-40750000D01*
X82500000Y-70750000D01*
D10*
%TO.C,U1*%
X56000000Y-55000000D02*
X84000000Y-55000000D01*
X56000000Y-105000000D02*
X56000000Y-55000000D01*
X60000000Y-55000000D02*
X80000000Y-55000000D01*
X60000000Y-80000000D02*
X60000000Y-55000000D01*
X80000000Y-55000000D02*
X80000000Y-80000000D01*
X80000000Y-80000000D02*
X60000000Y-80000000D01*
X84000000Y-55000000D02*
X84000000Y-105000000D01*
X84000000Y-105000000D02*
X56000000Y-105000000D01*
D12*
X84500000Y-54520000D02*
X80500000Y-54520000D01*
X84500000Y-58000000D02*
X84500000Y-54520000D01*
D11*
X80000000Y-60000000D02*
X60000000Y-60000000D01*
X60000000Y-55000000D01*
X80000000Y-55000000D01*
X80000000Y-60000000D01*
G36*
X80000000Y-60000000D02*
G01*
X60000000Y-60000000D01*
X60000000Y-55000000D01*
X80000000Y-55000000D01*
X80000000Y-60000000D01*
G37*
%TD*%
M02*
