%TF.GenerationSoftware,KiCad,Pcbnew,9.0.8-9.0.8~ubuntu24.04.1*%
%TF.CreationDate,2026-03-23T22:49:12+05:30*%
%TF.ProjectId,ss_pcb_rev1_0,73735f70-6362-45f7-9265-76315f302e6b,rev?*%
%TF.SameCoordinates,Original*%
%TF.FileFunction,Legend,Top*%
%TF.FilePolarity,Positive*%
%FSLAX46Y46*%
G04 Gerber Fmt 4.6, Leading zero omitted, Abs format (unit mm)*
G04 Created by KiCad (PCBNEW 9.0.8-9.0.8~ubuntu24.04.1) date 2026-03-23 22:49:12*
%MOMM*%
%LPD*%
G01*
G04 APERTURE LIST*
%ADD10C,0.150000*%
%ADD11C,0.100000*%
%ADD12C,0.120000*%
G04 APERTURE END LIST*
D10*
X87166667Y-95907200D02*
X87309524Y-95954819D01*
X87309524Y-95954819D02*
X87547619Y-95954819D01*
X87547619Y-95954819D02*
X87642857Y-95907200D01*
X87642857Y-95907200D02*
X87690476Y-95859580D01*
X87690476Y-95859580D02*
X87738095Y-95764342D01*
X87738095Y-95764342D02*
X87738095Y-95669104D01*
X87738095Y-95669104D02*
X87690476Y-95573866D01*
X87690476Y-95573866D02*
X87642857Y-95526247D01*
X87642857Y-95526247D02*
X87547619Y-95478628D01*
X87547619Y-95478628D02*
X87357143Y-95431009D01*
X87357143Y-95431009D02*
X87261905Y-95383390D01*
X87261905Y-95383390D02*
X87214286Y-95335771D01*
X87214286Y-95335771D02*
X87166667Y-95240533D01*
X87166667Y-95240533D02*
X87166667Y-95145295D01*
X87166667Y-95145295D02*
X87214286Y-95050057D01*
X87214286Y-95050057D02*
X87261905Y-95002438D01*
X87261905Y-95002438D02*
X87357143Y-94954819D01*
X87357143Y-94954819D02*
X87595238Y-94954819D01*
X87595238Y-94954819D02*
X87738095Y-95002438D01*
X88071429Y-94954819D02*
X88309524Y-95954819D01*
X88309524Y-95954819D02*
X88500000Y-95240533D01*
X88500000Y-95240533D02*
X88690476Y-95954819D01*
X88690476Y-95954819D02*
X88928572Y-94954819D01*
X89738095Y-95288152D02*
X89738095Y-95954819D01*
X89500000Y-94907200D02*
X89261905Y-95621485D01*
X89261905Y-95621485D02*
X89880952Y-95621485D01*
X87823333Y-68504819D02*
X87490000Y-68028628D01*
X87251905Y-68504819D02*
X87251905Y-67504819D01*
X87251905Y-67504819D02*
X87632857Y-67504819D01*
X87632857Y-67504819D02*
X87728095Y-67552438D01*
X87728095Y-67552438D02*
X87775714Y-67600057D01*
X87775714Y-67600057D02*
X87823333Y-67695295D01*
X87823333Y-67695295D02*
X87823333Y-67838152D01*
X87823333Y-67838152D02*
X87775714Y-67933390D01*
X87775714Y-67933390D02*
X87728095Y-67981009D01*
X87728095Y-67981009D02*
X87632857Y-68028628D01*
X87632857Y-68028628D02*
X87251905Y-68028628D01*
X88775714Y-68504819D02*
X88204286Y-68504819D01*
X88490000Y-68504819D02*
X88490000Y-67504819D01*
X88490000Y-67504819D02*
X88394762Y-67647676D01*
X88394762Y-67647676D02*
X88299524Y-67742914D01*
X88299524Y-67742914D02*
X88204286Y-67790533D01*
X87843333Y-101954819D02*
X87510000Y-101478628D01*
X87271905Y-101954819D02*
X87271905Y-100954819D01*
X87271905Y-100954819D02*
X87652857Y-100954819D01*
X87652857Y-100954819D02*
X87748095Y-101002438D01*
X87748095Y-101002438D02*
X87795714Y-101050057D01*
X87795714Y-101050057D02*
X87843333Y-101145295D01*
X87843333Y-101145295D02*
X87843333Y-101288152D01*
X87843333Y-101288152D02*
X87795714Y-101383390D01*
X87795714Y-101383390D02*
X87748095Y-101431009D01*
X87748095Y-101431009D02*
X87652857Y-101478628D01*
X87652857Y-101478628D02*
X87271905Y-101478628D01*
X88700476Y-101288152D02*
X88700476Y-101954819D01*
X88462381Y-100907200D02*
X88224286Y-101621485D01*
X88224286Y-101621485D02*
X88843333Y-101621485D01*
X86166667Y-73907200D02*
X86309524Y-73954819D01*
X86309524Y-73954819D02*
X86547619Y-73954819D01*
X86547619Y-73954819D02*
X86642857Y-73907200D01*
X86642857Y-73907200D02*
X86690476Y-73859580D01*
X86690476Y-73859580D02*
X86738095Y-73764342D01*
X86738095Y-73764342D02*
X86738095Y-73669104D01*
X86738095Y-73669104D02*
X86690476Y-73573866D01*
X86690476Y-73573866D02*
X86642857Y-73526247D01*
X86642857Y-73526247D02*
X86547619Y-73478628D01*
X86547619Y-73478628D02*
X86357143Y-73431009D01*
X86357143Y-73431009D02*
X86261905Y-73383390D01*
X86261905Y-73383390D02*
X86214286Y-73335771D01*
X86214286Y-73335771D02*
X86166667Y-73240533D01*
X86166667Y-73240533D02*
X86166667Y-73145295D01*
X86166667Y-73145295D02*
X86214286Y-73050057D01*
X86214286Y-73050057D02*
X86261905Y-73002438D01*
X86261905Y-73002438D02*
X86357143Y-72954819D01*
X86357143Y-72954819D02*
X86595238Y-72954819D01*
X86595238Y-72954819D02*
X86738095Y-73002438D01*
X87071429Y-72954819D02*
X87309524Y-73954819D01*
X87309524Y-73954819D02*
X87500000Y-73240533D01*
X87500000Y-73240533D02*
X87690476Y-73954819D01*
X87690476Y-73954819D02*
X87928572Y-72954819D01*
X88261905Y-73050057D02*
X88309524Y-73002438D01*
X88309524Y-73002438D02*
X88404762Y-72954819D01*
X88404762Y-72954819D02*
X88642857Y-72954819D01*
X88642857Y-72954819D02*
X88738095Y-73002438D01*
X88738095Y-73002438D02*
X88785714Y-73050057D01*
X88785714Y-73050057D02*
X88833333Y-73145295D01*
X88833333Y-73145295D02*
X88833333Y-73240533D01*
X88833333Y-73240533D02*
X88785714Y-73383390D01*
X88785714Y-73383390D02*
X88214286Y-73954819D01*
X88214286Y-73954819D02*
X88833333Y-73954819D01*
X87833333Y-78954819D02*
X87500000Y-78478628D01*
X87261905Y-78954819D02*
X87261905Y-77954819D01*
X87261905Y-77954819D02*
X87642857Y-77954819D01*
X87642857Y-77954819D02*
X87738095Y-78002438D01*
X87738095Y-78002438D02*
X87785714Y-78050057D01*
X87785714Y-78050057D02*
X87833333Y-78145295D01*
X87833333Y-78145295D02*
X87833333Y-78288152D01*
X87833333Y-78288152D02*
X87785714Y-78383390D01*
X87785714Y-78383390D02*
X87738095Y-78431009D01*
X87738095Y-78431009D02*
X87642857Y-78478628D01*
X87642857Y-78478628D02*
X87261905Y-78478628D01*
X88214286Y-78050057D02*
X88261905Y-78002438D01*
X88261905Y-78002438D02*
X88357143Y-77954819D01*
X88357143Y-77954819D02*
X88595238Y-77954819D01*
X88595238Y-77954819D02*
X88690476Y-78002438D01*
X88690476Y-78002438D02*
X88738095Y-78050057D01*
X88738095Y-78050057D02*
X88785714Y-78145295D01*
X88785714Y-78145295D02*
X88785714Y-78240533D01*
X88785714Y-78240533D02*
X88738095Y-78383390D01*
X88738095Y-78383390D02*
X88166667Y-78954819D01*
X88166667Y-78954819D02*
X88785714Y-78954819D01*
X86166667Y-63407200D02*
X86309524Y-63454819D01*
X86309524Y-63454819D02*
X86547619Y-63454819D01*
X86547619Y-63454819D02*
X86642857Y-63407200D01*
X86642857Y-63407200D02*
X86690476Y-63359580D01*
X86690476Y-63359580D02*
X86738095Y-63264342D01*
X86738095Y-63264342D02*
X86738095Y-63169104D01*
X86738095Y-63169104D02*
X86690476Y-63073866D01*
X86690476Y-63073866D02*
X86642857Y-63026247D01*
X86642857Y-63026247D02*
X86547619Y-62978628D01*
X86547619Y-62978628D02*
X86357143Y-62931009D01*
X86357143Y-62931009D02*
X86261905Y-62883390D01*
X86261905Y-62883390D02*
X86214286Y-62835771D01*
X86214286Y-62835771D02*
X86166667Y-62740533D01*
X86166667Y-62740533D02*
X86166667Y-62645295D01*
X86166667Y-62645295D02*
X86214286Y-62550057D01*
X86214286Y-62550057D02*
X86261905Y-62502438D01*
X86261905Y-62502438D02*
X86357143Y-62454819D01*
X86357143Y-62454819D02*
X86595238Y-62454819D01*
X86595238Y-62454819D02*
X86738095Y-62502438D01*
X87071429Y-62454819D02*
X87309524Y-63454819D01*
X87309524Y-63454819D02*
X87500000Y-62740533D01*
X87500000Y-62740533D02*
X87690476Y-63454819D01*
X87690476Y-63454819D02*
X87928572Y-62454819D01*
X88833333Y-63454819D02*
X88261905Y-63454819D01*
X88547619Y-63454819D02*
X88547619Y-62454819D01*
X88547619Y-62454819D02*
X88452381Y-62597676D01*
X88452381Y-62597676D02*
X88357143Y-62692914D01*
X88357143Y-62692914D02*
X88261905Y-62740533D01*
D11*
X69238095Y-48457419D02*
X69238095Y-49266942D01*
X69238095Y-49266942D02*
X69285714Y-49362180D01*
X69285714Y-49362180D02*
X69333333Y-49409800D01*
X69333333Y-49409800D02*
X69428571Y-49457419D01*
X69428571Y-49457419D02*
X69619047Y-49457419D01*
X69619047Y-49457419D02*
X69714285Y-49409800D01*
X69714285Y-49409800D02*
X69761904Y-49362180D01*
X69761904Y-49362180D02*
X69809523Y-49266942D01*
X69809523Y-49266942D02*
X69809523Y-48457419D01*
X70238095Y-48552657D02*
X70285714Y-48505038D01*
X70285714Y-48505038D02*
X70380952Y-48457419D01*
X70380952Y-48457419D02*
X70619047Y-48457419D01*
X70619047Y-48457419D02*
X70714285Y-48505038D01*
X70714285Y-48505038D02*
X70761904Y-48552657D01*
X70761904Y-48552657D02*
X70809523Y-48647895D01*
X70809523Y-48647895D02*
X70809523Y-48743133D01*
X70809523Y-48743133D02*
X70761904Y-48885990D01*
X70761904Y-48885990D02*
X70190476Y-49457419D01*
X70190476Y-49457419D02*
X70809523Y-49457419D01*
D10*
X87833333Y-89454819D02*
X87500000Y-88978628D01*
X87261905Y-89454819D02*
X87261905Y-88454819D01*
X87261905Y-88454819D02*
X87642857Y-88454819D01*
X87642857Y-88454819D02*
X87738095Y-88502438D01*
X87738095Y-88502438D02*
X87785714Y-88550057D01*
X87785714Y-88550057D02*
X87833333Y-88645295D01*
X87833333Y-88645295D02*
X87833333Y-88788152D01*
X87833333Y-88788152D02*
X87785714Y-88883390D01*
X87785714Y-88883390D02*
X87738095Y-88931009D01*
X87738095Y-88931009D02*
X87642857Y-88978628D01*
X87642857Y-88978628D02*
X87261905Y-88978628D01*
X88166667Y-88454819D02*
X88785714Y-88454819D01*
X88785714Y-88454819D02*
X88452381Y-88835771D01*
X88452381Y-88835771D02*
X88595238Y-88835771D01*
X88595238Y-88835771D02*
X88690476Y-88883390D01*
X88690476Y-88883390D02*
X88738095Y-88931009D01*
X88738095Y-88931009D02*
X88785714Y-89026247D01*
X88785714Y-89026247D02*
X88785714Y-89264342D01*
X88785714Y-89264342D02*
X88738095Y-89359580D01*
X88738095Y-89359580D02*
X88690476Y-89407200D01*
X88690476Y-89407200D02*
X88595238Y-89454819D01*
X88595238Y-89454819D02*
X88309524Y-89454819D01*
X88309524Y-89454819D02*
X88214286Y-89407200D01*
X88214286Y-89407200D02*
X88166667Y-89359580D01*
X86166667Y-84407200D02*
X86309524Y-84454819D01*
X86309524Y-84454819D02*
X86547619Y-84454819D01*
X86547619Y-84454819D02*
X86642857Y-84407200D01*
X86642857Y-84407200D02*
X86690476Y-84359580D01*
X86690476Y-84359580D02*
X86738095Y-84264342D01*
X86738095Y-84264342D02*
X86738095Y-84169104D01*
X86738095Y-84169104D02*
X86690476Y-84073866D01*
X86690476Y-84073866D02*
X86642857Y-84026247D01*
X86642857Y-84026247D02*
X86547619Y-83978628D01*
X86547619Y-83978628D02*
X86357143Y-83931009D01*
X86357143Y-83931009D02*
X86261905Y-83883390D01*
X86261905Y-83883390D02*
X86214286Y-83835771D01*
X86214286Y-83835771D02*
X86166667Y-83740533D01*
X86166667Y-83740533D02*
X86166667Y-83645295D01*
X86166667Y-83645295D02*
X86214286Y-83550057D01*
X86214286Y-83550057D02*
X86261905Y-83502438D01*
X86261905Y-83502438D02*
X86357143Y-83454819D01*
X86357143Y-83454819D02*
X86595238Y-83454819D01*
X86595238Y-83454819D02*
X86738095Y-83502438D01*
X87071429Y-83454819D02*
X87309524Y-84454819D01*
X87309524Y-84454819D02*
X87500000Y-83740533D01*
X87500000Y-83740533D02*
X87690476Y-84454819D01*
X87690476Y-84454819D02*
X87928572Y-83454819D01*
X88214286Y-83454819D02*
X88833333Y-83454819D01*
X88833333Y-83454819D02*
X88500000Y-83835771D01*
X88500000Y-83835771D02*
X88642857Y-83835771D01*
X88642857Y-83835771D02*
X88738095Y-83883390D01*
X88738095Y-83883390D02*
X88785714Y-83931009D01*
X88785714Y-83931009D02*
X88833333Y-84026247D01*
X88833333Y-84026247D02*
X88833333Y-84264342D01*
X88833333Y-84264342D02*
X88785714Y-84359580D01*
X88785714Y-84359580D02*
X88738095Y-84407200D01*
X88738095Y-84407200D02*
X88642857Y-84454819D01*
X88642857Y-84454819D02*
X88357143Y-84454819D01*
X88357143Y-84454819D02*
X88261905Y-84407200D01*
X88261905Y-84407200D02*
X88214286Y-84359580D01*
D12*
%TO.C,SW4*%
X90750000Y-93250000D02*
X90750000Y-97750000D01*
X93250000Y-99000000D02*
X94750000Y-99000000D01*
X94750000Y-92000000D02*
X93250000Y-92000000D01*
X97250000Y-97750000D02*
X97250000Y-93250000D01*
%TO.C,R1*%
X91120000Y-68050000D02*
X92070000Y-68050000D01*
X96860000Y-68050000D02*
X95910000Y-68050000D01*
X95910000Y-68970000D02*
X92070000Y-68970000D01*
X92070000Y-67130000D01*
X95910000Y-67130000D01*
X95910000Y-68970000D01*
%TO.C,R4*%
X91130000Y-101500000D02*
X92080000Y-101500000D01*
X96870000Y-101500000D02*
X95920000Y-101500000D01*
X95920000Y-102420000D02*
X92080000Y-102420000D01*
X92080000Y-100580000D01*
X95920000Y-100580000D01*
X95920000Y-102420000D01*
%TO.C,SW2*%
X90500000Y-72650000D02*
X90500000Y-74150000D01*
X91750000Y-76650000D02*
X96250000Y-76650000D01*
X96250000Y-70150000D02*
X91750000Y-70150000D01*
X97500000Y-74150000D02*
X97500000Y-72650000D01*
%TO.C,R2*%
X91130000Y-78500000D02*
X92080000Y-78500000D01*
X96870000Y-78500000D02*
X95920000Y-78500000D01*
X95920000Y-79420000D02*
X92080000Y-79420000D01*
X92080000Y-77580000D01*
X95920000Y-77580000D01*
X95920000Y-79420000D01*
%TO.C,SW1*%
X90500000Y-62150000D02*
X90500000Y-63650000D01*
X91750000Y-66150000D02*
X96250000Y-66150000D01*
X96250000Y-59650000D02*
X91750000Y-59650000D01*
X97500000Y-63650000D02*
X97500000Y-62150000D01*
%TO.C,U2*%
X59670000Y-105170000D02*
X61000000Y-105170000D01*
X59670000Y-106500000D02*
X59670000Y-105170000D01*
X62270000Y-105170000D02*
X80110000Y-105170000D01*
X62270000Y-107830000D02*
X62270000Y-105170000D01*
X62270000Y-107830000D02*
X80110000Y-107830000D01*
X64670000Y-51670000D02*
X66000000Y-51670000D01*
X64670000Y-53000000D02*
X64670000Y-51670000D01*
X67270000Y-51670000D02*
X74950000Y-51670000D01*
X67270000Y-54330000D02*
X67270000Y-51670000D01*
X67270000Y-54330000D02*
X74950000Y-54330000D01*
X74950000Y-54330000D02*
X74950000Y-51670000D01*
X80110000Y-107830000D02*
X80110000Y-105170000D01*
D11*
X52500000Y-110000000D02*
X87500000Y-110000000D01*
X87500000Y-50000000D01*
X52500000Y-50000000D01*
X52500000Y-110000000D01*
D12*
%TO.C,R3*%
X91130000Y-89000000D02*
X92080000Y-89000000D01*
X96870000Y-89000000D02*
X95920000Y-89000000D01*
X95920000Y-89920000D02*
X92080000Y-89920000D01*
X92080000Y-88080000D01*
X95920000Y-88080000D01*
X95920000Y-89920000D01*
%TO.C,SW3*%
X90500000Y-83150000D02*
X90500000Y-84650000D01*
X91750000Y-87150000D02*
X96250000Y-87150000D01*
X96250000Y-80650000D02*
X91750000Y-80650000D01*
X97500000Y-84650000D02*
X97500000Y-83150000D01*
%TD*%
M02*
